<svg width="600" height="123" viewBox="0 0 600 123" fill="none" xmlns="http://www.w3.org/2000/svg">
<path d="M340.801 102.068L344.774 102.447L345.036 103.602C341.613 103.137 338.455 103.137 335.032 103.602L335.294 102.447L339.267 102.071V21.7563L335.036 21.1428V20.0038C339.313 20.2377 343.897 20.905 348.108 20L355.611 73.3101L362.341 20C366.579 20.7286 370.805 20.2838 375.032 20V21.1389L370.797 21.5301V101.841L374.806 102.413L375.032 103.594H358.106V102.455L362.337 102.064V33.042L361.623 36.3552L352.704 103.966L351.426 104L340.805 32.6585V102.068H340.801Z" fill="black"/>
<path d="M206.45 101.477L210.59 101.865V102.996H194.032L194.254 101.824L197.803 101.261V21.5686L194.254 21.2224L194.032 20.0505C195.384 19.9097 196.625 20.4043 197.968 20.4463C202.563 20.5946 209.167 19.2476 213.215 20.6289C215.037 21.2529 216.396 22.3601 217.378 24.0305C221.611 31.2106 222.126 50.5019 217.144 57.3053C215.928 58.9642 214.337 59.8355 212.85 61.1406C214.351 61.4147 216.139 62.7543 216.99 63.995C219.017 66.9467 219.398 76.821 219.617 80.744C219.798 84.0052 219.518 99.3166 220.93 101.105C221.479 101.797 223.244 101.062 223.011 102.806L212.095 103C212.173 99.507 211.526 96.0178 211.326 92.5507C210.871 84.6476 211.481 75.9921 210.54 68.2328C210.235 65.7111 209.623 61.5211 206.45 61.525V101.477ZM206.45 60.003C209.103 60.4025 210.04 59.4056 210.86 57.0427C212.866 51.2895 212.718 31.4199 211.071 25.4612C210.371 22.9271 209.464 20.7925 206.45 21.5725V60.003Z" fill="black"/>
<path d="M44.0756 19.7331V48.0722H42.5289C42.2894 41.0114 42.134 33.0775 39.9303 26.3268C38.5884 22.2143 35.487 16.5741 32.0143 22.9189C27.2384 31.6455 27.8146 62.7299 28.2014 73.5478C28.4295 79.9147 29.2145 96.6746 33.6231 101.109C35.1621 102.656 35.9974 103.073 37.9116 101.511L38.2713 67.2096L34.0175 66.8199V65.682H51.0322V66.8199L46.7753 67.2096V102.824C39.5551 103.1 32.8844 106.404 26.844 100.542C21.3991 95.2618 19.655 79.452 19.307 72.019C18.7385 59.7968 18.0386 28.9995 28.5957 21.0695C33.6656 17.2633 38.4338 19.9054 44.0756 19.7369V19.7331Z" fill="black"/>
<path d="M404.038 101.477C410.651 102.082 412.514 100.418 414.01 94.5556C415.516 88.6694 414.949 83.4636 415.46 77.6811C415.567 76.4668 415.646 75.1682 417.032 75.5829C416.571 84.709 416.559 93.8467 417.032 103H391.032L391.264 101.823L395.372 101.256V21.5191L391.264 21.1727L391.032 20H416.638V47.0282L415.437 46.8607C414.955 46.5218 414.846 37.1634 414.669 35.4197C414.366 32.4576 413.361 24.6754 411.34 22.6461C409.319 20.6169 406.579 21.6943 404.038 21.5191V60.3539C409.158 61.2828 410.26 55.37 410.683 51.7379C410.899 49.8799 409.809 45.9431 412.305 46.2668C411.833 56.1506 411.833 66.0538 412.305 75.9601L411.104 75.7929L410.793 75.3315C410.6 70.5987 411.025 61.279 404.034 61.496V101.473L404.038 101.477Z" fill="black"/>
<path d="M161.538 101.477C164.268 101.385 166.805 102.128 168.885 99.9156C172.889 95.6623 172.309 81.3434 172.9 75.5829H174.032C173.771 84.7401 173.714 93.8273 174.032 103H149.032L149.255 101.823L153.203 101.477V21.7399L149.255 21.1727L149.032 20H173.653L173.649 47.0282L172.494 46.8607C172.017 46.5104 171.941 36.8474 171.756 35.039C171.46 32.1644 170.442 24.6145 168.556 22.6461C166.537 20.5444 164.071 21.6943 161.534 21.5191V60.3539C168.499 61.2828 167.855 50.9687 168.351 46.2629H169.484C169.045 56.181 169.105 66.0642 169.484 75.9639H168.351C167.786 70.9797 168.65 61.3779 161.534 61.4922V101.469L161.538 101.477Z" fill="black"/>
<path d="M578.086 20.1085V47.6579H576.94C576.454 40.5984 576.66 32.6129 574.449 25.8442C572.238 19.0678 567.212 17.6941 565.243 25.4615C560.583 43.8545 575.408 56.8792 578.976 73.3629C580.73 81.4743 581.056 96.172 573.873 101.804C569.026 105.607 562.952 103.472 557.409 102.737L557.391 74.8242H558.92C559.165 81.9184 559.214 90.7995 561.69 97.5069C564.335 104.666 569.516 104.378 571.379 97.0211C576.292 77.6296 561.997 66.3716 558.34 49.1921C556.827 42.083 555.793 29.2036 560.134 23.0434C564.477 16.883 571.597 19.4046 578.078 20.1124L578.086 20.1085Z" fill="black"/>
<path d="M438.398 102.083L442.385 102.431L442.611 103.612C439.321 103.163 436.323 103.163 433.032 103.612L433.258 102.431L437.25 102.083V21.7755L433.293 21.1774L433.032 20.0232C436.28 20.3682 439.544 20.514 442.817 20.422C443.956 20.3914 446.369 19.5285 447.023 20.3951L460.608 76.0032V21.557L456.621 21.208L456.399 20.0271C458.387 20.3645 460.324 20.4642 462.351 20.4258C463.623 20.4028 466.502 19.1029 465.967 21.1621L461.757 21.557V104L458.731 103.961L438.394 23.4743V102.083H438.398Z" fill="black"/>
<path d="M490.258 21.5268C489.2 21.622 487.9 21.2679 486.912 21.7247C481.777 24.1007 484.464 42.1444 482.992 42.4719C482.489 42.5823 481.896 42.6584 482.06 41.9084V20C490.356 20.6168 498.717 20.4759 507.032 20V42.468H505.913C505.157 38.7785 505.776 34.9711 505.534 31.2359C505.258 26.922 504.542 20.3694 498.829 21.5229V101.481L502.53 101.892L502.556 103C497.219 102.546 491.883 102.543 486.529 103L486.748 101.827L490.254 101.481V21.5268H490.258Z" fill="black"/>
<path d="M119.977 101.473C127.337 102.497 128.801 98.8272 130.064 92.7962C131.511 85.8904 131.157 78.4209 131.75 71.3959H132.923C133.084 78.7099 132.346 85.985 132.515 93.3068C132.586 96.4169 133.295 99.7745 132.927 103H107.032L107.265 101.823L110.963 101.26V21.519L107.265 21.1726L107.032 20H124.297V21.1308L119.981 21.519V101.47L119.977 101.473Z" fill="black"/>
<path d="M77.3903 19L89.3285 100.836L91.6452 101.653L92.0322 103C86.8842 102.539 81.7805 102.539 76.6365 103L76.8689 101.818L80.1894 101.465L77.1968 81.4863L68.5146 81.8664L65.9722 101.461L69.2967 101.814L69.5292 102.996C66.9209 102.655 64.6459 102.432 62.0322 102.996L62.4192 101.649L64.7413 100.836L75.9055 19.0115L77.3903 19ZM77.4293 80.359L72.89 49.2705L68.7444 80.359H77.4293Z" fill="black"/>
<path d="M289.929 19.0076L301.376 101.454L303.807 101.818L304.032 103C299.067 102.54 294.135 102.54 289.166 103L289.39 101.818L292.595 101.466L289.573 81.689L281.166 81.5284L278.873 101.47L281.701 101.818L281.921 103C279.536 102.529 277.451 102.529 275.066 103C274.814 101.274 276.008 101.482 277.306 101.424L288.027 19L289.929 19.0076ZM289.551 80.3743L285.549 49.685L281.548 80.3743H289.551Z" fill="black"/>
<path d="M541.032 20L541.028 21.1309L536.775 21.74L536.779 101.481L541.028 101.869L541.032 103H524.032L524.26 101.827L528.286 101.481L528.3 25.8826L527.899 21.5192L524.036 21.1309L524.032 20H541.032Z" fill="black"/>
<path d="M259.032 20L258.799 21.1765L255.077 21.5192L255.072 101.263L258.799 101.827L259.032 103H242.032L242.265 101.827L246.388 101.259L246.383 21.5192L242.265 21.1765L242.032 20H259.032Z" fill="black"/>
</svg>
