<svg width="600" height="200" viewBox="0 0 600 200" fill="none" xmlns="http://www.w3.org/2000/svg">
<rect width="600" height="200" fill="#D9D9D9"/>
<path d="M331.067 130.299L334.102 130.589L334.302 131.474C331.687 131.118 329.275 131.118 326.66 131.474L326.86 130.589L329.895 130.301V68.7708L326.663 68.3008V67.4282C329.93 67.6074 333.432 68.1186 336.649 67.4253L342.381 108.267L347.522 67.4253C350.759 67.9835 353.988 67.6427 357.217 67.4253V68.2978L353.982 68.5975V130.125L357.044 130.563L357.217 131.468H344.287V130.595L347.519 130.296V77.417L346.973 79.9553L340.16 131.753L339.184 131.779L331.07 77.1232V130.299H331.067Z" fill="black"/>
<path d="M227.945 130.298L231.177 130.598V131.471H218.25L218.423 130.566L221.194 130.131V68.6003L218.423 68.333L218.25 67.4281C219.305 67.3194 220.274 67.7013 221.323 67.7337C224.91 67.8482 230.066 66.8082 233.227 67.8747C234.649 68.3565 235.71 69.2114 236.477 70.5011C239.782 76.0449 240.184 90.9399 236.294 96.1928C235.345 97.4737 234.103 98.1464 232.942 99.1541C234.114 99.3657 235.51 100.4 236.174 101.358C237.757 103.637 238.054 111.261 238.225 114.29C238.366 116.808 238.148 128.63 239.25 130.011C239.679 130.545 241.057 129.978 240.875 131.324L232.352 131.474C232.413 128.777 231.908 126.083 231.752 123.406C231.397 117.304 231.873 110.621 231.138 104.63C230.9 102.683 230.422 99.4479 227.945 99.4509V130.298ZM227.945 98.2757C230.016 98.5842 230.748 97.8145 231.388 95.9901C232.954 91.548 232.839 76.2065 231.553 71.6058C231.006 69.6492 230.298 68.001 227.945 68.6033V98.2757Z" fill="black"/>
<path d="M103.09 67.4248V89.1679H101.915C101.733 83.7505 101.615 77.6632 99.9408 72.4838C98.9214 69.3285 96.5652 65.001 93.927 69.8691C90.2987 76.5645 90.7365 100.414 91.0303 108.714C91.2036 113.599 91.8 126.458 95.1492 129.86C96.3184 131.047 96.953 131.367 98.4072 130.169L98.6805 103.851L95.4488 103.552V102.679H108.375V103.552L105.141 103.851V131.176C99.6558 131.388 94.588 133.923 89.9991 129.425C85.8626 125.374 84.5376 113.244 84.2732 107.541C83.8413 98.1636 83.3096 74.5344 91.3299 68.4501C95.1815 65.5298 98.8039 67.557 103.09 67.4277V67.4248Z" fill="black"/>
<path d="M379.834 130.299C384.766 130.766 386.156 129.482 387.272 124.958C388.395 120.416 387.972 116.399 388.353 111.937C388.433 111 388.492 109.998 389.526 110.318C389.182 117.36 389.173 124.411 389.526 131.474H370.133L370.306 130.566L373.37 130.128V68.6004L370.306 68.3331L370.133 67.4282H389.232V88.2841L388.336 88.1549C387.977 87.8934 387.895 80.6721 387.763 79.3266C387.537 77.0409 386.788 71.0359 385.28 69.47C383.773 67.9042 381.729 68.7356 379.834 68.6004V98.5667C383.653 99.2835 384.475 94.721 384.79 91.9183C384.951 90.4846 384.138 87.4468 386 87.6966C385.648 95.3233 385.648 102.965 386 110.609L385.104 110.48L384.872 110.124C384.728 106.472 385.045 99.2806 379.831 99.448V130.296L379.834 130.299Z" fill="black"/>
<path d="M193.572 130.299C195.69 130.228 197.658 130.801 199.271 129.094C202.377 125.812 201.927 114.763 202.386 110.318H203.264C203.061 117.384 203.017 124.396 203.264 131.474H183.871L184.044 130.566L187.106 130.299V68.7708L184.044 68.3331L183.871 67.4282H202.97L202.967 88.2841L202.071 88.1549C201.701 87.8846 201.642 80.4283 201.498 79.0328C201.269 76.8147 200.479 70.9889 199.016 69.47C197.45 67.8483 195.537 68.7356 193.569 68.6004V98.5667C198.972 99.2835 198.472 91.3248 198.857 87.6936H199.736C199.395 95.3468 199.442 102.973 199.736 110.612H198.857C198.419 106.766 199.089 99.3569 193.569 99.4451V130.293L193.572 130.299Z" fill="black"/>
<path d="M513.508 67.7247V88.8774H512.63C512.257 83.457 512.415 77.3257 510.72 72.1286C509.025 66.9256 505.173 65.8709 503.663 71.8348C500.091 85.9571 511.455 95.9576 514.19 108.614C515.535 114.842 515.785 126.127 510.279 130.451C506.563 133.371 501.907 131.732 497.658 131.168L497.644 109.736H498.816C499.004 115.183 499.042 122.002 500.94 127.152C502.967 132.649 506.939 132.428 508.367 126.779C512.133 111.89 501.175 103.246 498.372 90.0554C497.212 84.5969 496.419 74.708 499.747 69.9781C503.076 65.2481 508.534 67.1842 513.502 67.7277L513.508 67.7247Z" fill="black"/>
<path d="M406.276 130.298L409.334 130.565L409.508 131.47C406.984 131.126 404.684 131.126 402.16 131.47L402.333 130.565L405.395 130.298V68.77L402.36 68.3117L402.16 67.4274C404.651 67.6918 407.155 67.8035 409.666 67.733C410.539 67.7095 412.39 67.0484 412.892 67.7124L423.313 110.317V68.6026L420.254 68.3352L420.084 67.4304C421.609 67.6889 423.095 67.7653 424.65 67.7359C425.625 67.7183 427.834 66.7223 427.423 68.3L424.194 68.6026V131.767L421.873 131.737L406.273 70.0715V130.298H406.276Z" fill="black"/>
<path d="M445.938 68.6034C445.104 68.6768 444.079 68.4036 443.3 68.7561C439.252 70.5894 441.37 84.5119 440.21 84.7646C439.813 84.8498 439.346 84.9085 439.475 84.3298V67.4253C446.015 67.9012 452.607 67.7925 459.162 67.4253V84.7616H458.28C457.684 81.9148 458.172 78.977 457.981 76.0949C457.763 72.7663 457.199 67.7103 452.695 68.6004V130.296L455.613 130.613L455.633 131.468C451.426 131.118 447.219 131.115 442.998 131.468L443.171 130.563L445.935 130.296V68.6034H445.938Z" fill="black"/>
<path d="M161.552 130.299C167.064 131.089 168.16 128.257 169.106 123.603C170.19 118.274 169.925 112.51 170.369 107.089H171.247C171.368 112.733 170.815 118.347 170.942 123.997C170.995 126.397 171.526 128.988 171.25 131.477H151.857L152.031 130.569L154.801 130.134V68.6004L152.031 68.3331L151.857 67.4282H164.787V68.3008L161.555 68.6004V130.296L161.552 130.299Z" fill="black"/>
<path d="M128.911 67.167L137.795 129.817L139.519 130.443L139.807 131.474C135.976 131.121 132.178 131.121 128.35 131.474L128.523 130.569L130.994 130.299L128.767 115.004L122.306 115.295L120.414 130.296L122.888 130.566L123.061 131.471C121.12 131.21 119.427 131.039 117.482 131.471L117.77 130.44L119.498 129.817L127.806 67.1758L128.911 67.167ZM128.94 114.141L125.562 90.3409L122.477 114.141H128.94Z" fill="black"/>
<path d="M291.988 67.1367L300.813 130.286L302.687 130.565L302.861 131.47C299.033 131.118 295.231 131.118 291.4 131.47L291.573 130.565L294.044 130.295L291.714 115.147L285.233 115.024L283.465 130.298L285.645 130.565L285.815 131.47C283.976 131.109 282.369 131.109 280.53 131.47C280.336 130.148 281.256 130.307 282.257 130.263L290.522 67.1309L291.988 67.1367ZM291.697 114.14L288.612 90.6338L285.527 114.14H291.697Z" fill="black"/>
<path d="M484.717 67.4282L484.714 68.3008L481.479 68.7708L481.482 130.299L484.714 130.598L484.717 131.471H471.787L471.96 130.566L475.022 130.299L475.033 71.9672L474.728 68.6004L471.79 68.3008L471.787 67.4282H484.717Z" fill="black"/>
<path d="M268.196 67.4282L268.023 68.336L265.256 68.6004L265.253 130.131L268.023 130.566L268.196 131.471H255.561L255.734 130.566L258.798 130.128L258.795 68.6004L255.734 68.336L255.561 67.4282H268.196Z" fill="black"/>
</svg>
