<svg width="1467" height="223" viewBox="0 0 1467 223" fill="none" xmlns="http://www.w3.org/2000/svg">
<path d="M840.75 216.14L851.08 217.13L851.76 220.14C842.86 218.93 834.65 218.93 825.75 220.14L826.43 217.13L836.76 216.15V6.70988L825.76 5.10988V2.13988C836.88 2.74988 848.8 4.48988 859.75 2.12988L879.26 141.15L896.76 2.12988C907.78 4.02988 918.77 2.86988 929.76 2.12988V5.09988L918.75 6.11988V215.55L929.17 217.04L929.76 220.12H885.75V217.15L896.75 216.13V36.1399L894.89 44.7799L871.7 221.09L868.38 221.18L840.76 35.1399V216.14H840.75Z" fill="white"/>
<path d="M489.75 216.14L500.75 217.16V220.13H456.75L457.34 217.05L466.77 215.57V6.12996L457.34 5.21996L456.75 2.13996C460.34 1.76996 463.64 3.06996 467.21 3.17996C479.42 3.56996 496.97 0.029956 507.73 3.65996C512.57 5.29996 516.18 8.20996 518.79 12.6C530.04 31.47 531.41 82.17 518.17 100.05C514.94 104.41 510.71 106.7 506.76 110.13C510.75 110.85 515.5 114.37 517.76 117.63C523.15 125.39 524.16 151.34 524.74 161.65C525.22 170.22 524.48 210.46 528.23 215.16C529.69 216.98 534.38 215.05 533.76 219.63L504.75 220.14C504.96 210.96 503.24 201.79 502.71 192.68C501.5 171.91 503.12 149.16 500.62 128.77C499.81 122.14 498.18 111.13 489.75 111.14V216.14ZM489.75 107.14C496.8 108.19 499.29 105.57 501.47 99.36C506.8 84.24 506.41 32.02 502.03 16.36C500.17 9.69996 497.76 4.08996 489.75 6.13996V107.14Z" fill="white"/>
<path d="M64.7605 2.1301V76.1401H60.7605C60.1405 57.7001 59.7405 36.9801 54.0405 19.3501C50.5705 8.6101 42.5505 -6.1199 33.5705 10.4501C21.2205 33.2401 22.7105 114.42 23.7105 142.67C24.3005 159.3 26.3305 203.07 37.7305 214.65C41.7105 218.69 43.8705 219.78 48.8205 215.7L49.7505 126.12L38.7505 125.1V122.13H82.7505V125.1L71.7405 126.12V219.13C53.0705 219.85 35.8205 228.48 20.2005 213.17C6.12048 199.38 1.61048 158.09 0.710482 138.68C-0.759518 106.76 -2.56952 26.3301 24.7305 5.6201C37.8405 -4.3199 50.1705 2.5801 64.7605 2.1401V2.1301Z" fill="white"/>
<path d="M1006.75 216.14C1023.54 217.73 1028.27 213.36 1032.07 197.96C1035.89 182.5 1034.45 168.83 1035.75 153.64C1036.02 150.45 1036.22 147.04 1039.74 148.13C1038.57 172.1 1038.54 196.1 1039.74 220.14H973.73L974.32 217.05L984.75 215.56V6.12989L974.32 5.21989L973.73 2.13989H1038.74V73.1299L1035.69 72.6899C1034.47 71.7999 1034.19 47.2199 1033.74 42.6399C1032.97 34.8599 1030.42 14.4199 1025.29 9.08989C1020.16 3.75989 1013.2 6.58989 1006.75 6.12989V108.13C1019.75 110.57 1022.55 95.0399 1023.62 85.4999C1024.17 80.6199 1021.4 70.2799 1027.74 71.1299C1026.54 97.0899 1026.54 123.1 1027.74 149.12L1024.69 148.68L1023.9 147.47C1023.41 135.04 1024.49 110.56 1006.74 111.13V216.13L1006.75 216.14Z" fill="white"/>
<path d="M372.75 216.14C379.96 215.9 386.66 217.85 392.15 212.04C402.72 200.87 401.19 163.26 402.75 148.13H405.74C405.05 172.18 404.9 196.05 405.74 220.14H339.73L340.32 217.05L350.74 216.14V6.70989L340.32 5.21989L339.73 2.13989H404.74L404.73 73.1299L401.68 72.6899C400.42 71.7699 400.22 46.3899 399.73 41.6399C398.95 34.0899 396.26 14.2599 391.28 9.08989C385.95 3.56989 379.44 6.58989 372.74 6.12989V108.13C391.13 110.57 389.43 83.4799 390.74 71.1199H393.73C392.57 97.1699 392.73 123.13 393.73 149.13H390.74C389.25 136.04 391.53 110.82 372.74 111.12V216.12L372.75 216.14Z" fill="white"/>
<path d="M1461.75 3.15001V75.15H1458.76C1457.49 56.7 1458.03 35.83 1452.26 18.14C1446.49 0.43001 1433.38 -3.15999 1428.24 17.14C1416.08 65.21 1454.76 99.25 1464.07 142.33C1468.65 163.53 1469.5 201.94 1450.76 216.66C1438.11 226.6 1422.26 221.02 1407.8 219.1L1407.75 146.15H1411.74C1412.38 164.69 1412.51 187.9 1418.97 205.43C1425.87 224.14 1439.39 223.39 1444.25 204.16C1457.07 153.48 1419.77 124.06 1410.23 79.16C1406.28 60.58 1403.58 26.92 1414.91 10.82C1426.24 -5.27999 1444.82 1.31001 1461.73 3.16001L1461.75 3.15001Z" fill="white"/>
<path d="M1096.75 216.14L1107.16 217.05L1107.75 220.13C1099.16 218.96 1091.33 218.96 1082.74 220.13L1083.33 217.05L1093.75 216.14V6.71006L1083.42 5.15006L1082.74 2.14006C1091.22 3.04006 1099.74 3.42006 1108.29 3.18006C1111.26 3.10006 1117.56 0.850057 1119.27 3.11006L1154.74 148.13V6.14006L1144.33 5.23006L1143.75 2.15006C1148.94 3.03006 1154 3.29006 1159.29 3.19006C1162.61 3.13006 1170.13 -0.259943 1168.73 5.11006L1157.74 6.14006V221.14L1149.84 221.04L1096.74 11.1401V216.14H1096.75Z" fill="white"/>
<path d="M1231.75 6.13988C1228.91 6.38988 1225.42 5.45988 1222.77 6.65988C1208.99 12.8999 1216.2 60.2899 1212.25 61.1499C1210.9 61.4399 1209.31 61.6399 1209.75 59.6699V2.12988C1232.01 3.74988 1254.45 3.37988 1276.76 2.12988V61.1399H1273.76C1271.73 51.4499 1273.39 41.4499 1272.74 31.6399C1272 20.3099 1270.08 3.09988 1254.75 6.12988V216.13L1264.68 217.21L1264.75 220.12C1250.43 218.93 1236.11 218.92 1221.74 220.12L1222.33 217.04L1231.74 216.13V6.13988H1231.75Z" fill="white"/>
<path d="M263.75 216.14C282.51 218.83 286.24 209.19 289.46 193.35C293.15 175.21 292.25 155.59 293.76 137.14H296.75C297.16 156.35 295.28 175.46 295.71 194.69C295.89 202.86 297.7 211.68 296.76 220.15H230.75L231.34 217.06L240.77 215.58V6.12989L231.34 5.21989L230.75 2.13989H274.76V5.10989L263.76 6.12989V216.13L263.75 216.14Z" fill="white"/>
<path d="M152.65 1.25L182.89 214.5L188.76 216.63L189.74 220.14C176.7 218.94 163.77 218.94 150.74 220.14L151.33 217.06L159.74 216.14L152.16 164.08L130.17 165.07L123.73 216.13L132.15 217.05L132.74 220.13C126.13 219.24 120.37 218.66 113.75 220.13L114.73 216.62L120.61 214.5L148.89 1.28L152.65 1.25ZM152.75 161.14L141.25 80.13L130.75 161.14H152.75Z" fill="white"/>
<path d="M707.74 1.14988L737.78 216.1L744.16 217.05L744.75 220.13C731.72 218.93 718.78 218.93 705.74 220.13L706.33 217.05L714.74 216.13L706.81 164.57L684.75 164.15L678.73 216.14L686.15 217.05L686.73 220.13C680.47 218.9 675 218.9 668.74 220.13C668.08 215.63 671.21 216.17 674.62 216.02L702.75 1.12988L707.74 1.14988ZM706.75 161.14L696.25 81.1299L685.75 161.14H706.75Z" fill="white"/>
<path d="M1363.76 2.13989L1363.75 5.10989L1352.74 6.70989L1352.75 216.14L1363.75 217.16L1363.76 220.13H1319.75L1320.34 217.05L1330.76 216.14L1330.8 17.5899L1329.76 6.12989L1319.76 5.10989L1319.75 2.13989H1363.76Z" fill="white"/>
<path d="M626.76 2.13989L626.17 5.22989L616.75 6.12989L616.74 215.57L626.17 217.05L626.76 220.13H583.75L584.34 217.05L594.77 215.56L594.76 6.12989L584.34 5.22989L583.75 2.13989H626.76Z" fill="white"/>
</svg>
